<svg width="1035" height="280" viewBox="0 0 1035 280" fill="none" xmlns="http://www.w3.org/2000/svg">
<path fill-rule="evenodd" clip-rule="evenodd" d="M1194.98 87.5769L1152.78 107.459C1110.58 127.341 1026.18 167.105 941.788 206.868C857.391 246.632 772.994 286.396 693.395 278.4C613.795 270.404 538.993 214.649 461.193 188.743C383.393 162.837 302.594 166.782 225.393 134.906C148.193 103.03 74.59 35.3349 37.7888 1.48718L0.987495 -32.3605L8.18374 -104L47.9834 -100.002C87.7832 -96.0042 167.383 -88.0083 246.982 -80.0125C326.581 -72.0167 406.181 -64.0208 485.78 -56.025C565.38 -48.0292 644.979 -40.0333 724.578 -32.0375C804.178 -24.0417 883.777 -16.0459 963.377 -8.05002C1042.98 -0.0541925 1122.58 7.94164 1162.38 11.9396L1202.17 15.9375L1194.98 87.5769Z" fill="white" fill-opacity="0.12"/>
</svg>
